# xmcd CD database file
#
# Track frame offsets:
#	150
#	12747
#	24997
#	45977
#	70862
#	102197
#	112262
#	124935
#	140857
#	160452
#	179715
#	188267
#	192330
#
# Disc length: 2700 seconds
#
# Revision: 3
# Processed by: cddbd v1.5.2PL0 Copyright (c) Steve Scherf et al.
# Submitted via: CDex 1.70
#
DISCID=bc0a8a0d
DTITLE=Keiko Matsui - The Piano
DYEAR=2003
DGENRE=Jazz
TTITLE0=Presence of the Moon
TTITLE1=Water Lily
TTITLE2=Whisper From the Mirror
TTITLE3=Between the Moons
TTITLE4=Light Above the Trees
TTITLE5=Doll
TTITLE6=Beyond the Light
TTITLE7=Trees
TTITLE8=Forever, Forever
TTITLE9=See you There
TTITLE10=Dawn
TTITLE11=Distance
TTITLE12=Be with Me
EXTD=YEAR: 2003
EXTT0=
EXTT1=
EXTT2=
EXTT3=
EXTT4=
EXTT5=
EXTT6=
EXTT7=
EXTT8=
EXTT9=
EXTT10=
EXTT11=
EXTT12=
PLAYORDER=
